<svg width="128" height="125" fill="none" xmlns="http://www.w3.org/2000/svg">
  <path d="M5.25 110.09h1.0325c.8633 0 1.4875-.268 1.8725-.805l6.4225-8.593c.3033-.408.6358-.688.9975-.8395.3617-.1634.805-.245 1.33-.245h4.55L13.37 110.02c-.525.677-1.0675 1.161-1.6275 1.452.4083.164.7758.38 1.1025.648.3267.257.6417.601.945 1.032L22.085 125h-4.6725c-.3033 0-.5658-.023-.7875-.07-.21-.047-.3967-.111-.56-.193-.1633-.081-.3033-.18-.42-.297-.1167-.128-.2275-.274-.3325-.438l-6.5275-9.135c-.2217-.315-.4842-.536-.7875-.665-.3033-.14-.7292-.21-1.2775-.21H5.25V125H0V99.6075h5.25V110.09Z" fill="#000"/>
  <path d="m37.7409 115.357-2.7475-7.77c-.1633-.408-.3383-.886-.525-1.435-.175-.548-.3441-1.143-.5075-1.785-.1633.654-.3383 1.26-.525 1.82-.175.549-.3441 1.027-.5075 1.435l-2.73 7.735h7.5425Zm8.82 9.643h-4.0775c-.455 0-.8283-.105-1.12-.315-.28-.222-.49-.502-.63-.84l-1.715-4.848h-10.115l-1.715 4.848c-.1166.292-.3208.56-.6125.805-.2916.233-.6591.35-1.1025.35h-4.1125l9.9225-25.3925h5.3725L46.5609 125Zm30.3502-25.3925V125h-4.6375v-15.593c0-.326.0059-.676.0175-1.05.0234-.373.0584-.752.105-1.137l-7.2625 13.772c-.3966.759-1.0091 1.138-1.8375 1.138h-.735c-.4083 0-.77-.093-1.085-.28-.315-.198-.5658-.484-.7525-.858l-7.2975-13.825c.035.409.0642.805.0875 1.19.0234.374.035.724.035 1.05V125h-4.6375V99.6075h3.99c.2217 0 .42.0058.595.0175.175.0116.3267.0466.455.105.14.0466.2625.1283.3675.245.1167.105.2275.257.3325.455l7.105 13.545c.2217.408.4259.828.6125 1.26.1984.432.385.875.56 1.33.175-.467.3559-.922.5425-1.365.1984-.443.4084-.869.63-1.278l7.0525-13.492c.105-.198.2159-.35.3325-.455.1167-.1167.2392-.1984.3675-.245.14-.0584.2917-.0934.455-.105.175-.0117.3792-.0175.6125-.0175h3.99Zm15.0385 21.3675c.84 0 1.5284-.099 2.065-.298.5484-.21.9859-.484 1.3125-.822.3267-.338.5542-.723.6825-1.155.1284-.443.1925-.898.1925-1.365 0-.513-.0758-.974-.2274-1.383-.1517-.408-.3967-.752-.735-1.032-.3384-.292-.7817-.513-1.33-.665-.5367-.152-1.2017-.228-1.9951-.228h-4.4625v6.948h4.4975Zm-4.4975-17.378v6.86h3.4475c.735 0 1.3884-.058 1.96-.175.5717-.128 1.05-.326 1.435-.595.385-.268.6767-.618.875-1.05.21-.443.315-.974.315-1.592 0-.63-.0874-1.167-.2624-1.61-.1634-.443-.4201-.799-.7701-1.068-.35-.268-.7933-.46-1.33-.577-.5366-.128-1.1725-.193-1.9075-.193h-3.7625Zm3.7625-3.9895c1.7034 0 3.1559.1633 4.3575.4895 1.2134.315 2.1992.77 2.9575 1.365.77.584 1.3301 1.295 1.6804 2.135.35.84.525 1.78.525 2.818 0 .583-.088 1.143-.263 1.68-.163.537-.426 1.044-.7874 1.522-.35.467-.8049.893-1.3649 1.278s-1.2251.712-1.9951.98c1.7267.408 3.0042 1.073 3.8324 1.995.828.922 1.243 2.117 1.243 3.587 0 1.074-.21 2.071-.63 2.993-.409.922-1.0095 1.721-1.8029 2.397-.7933.677-1.7733 1.208-2.94 1.593-1.155.373-2.4849.56-3.9899.56h-9.8351V99.6075h9.0125Zm27.1904 15.7495-2.747-7.77c-.164-.408-.339-.886-.526-1.435-.175-.548-.344-1.143-.507-1.785-.163.654-.338 1.26-.525 1.82-.175.549-.344 1.027-.508 1.435l-2.729 7.735h7.542Zm8.82 9.643h-4.078c-.455 0-.828-.105-1.12-.315-.28-.222-.49-.502-.63-.84l-1.715-4.848h-10.115l-1.715 4.848c-.116.292-.32.56-.612.805-.292.233-.659.35-1.103.35h-4.112l9.922-25.3925h5.373L127.225 125Z" fill="#000"/>
  <path d="m17.5 29.5 19 13 21.6329-13.2446A6.0002 6.0002 0 0 0 61 24.1382V4.7161c0-2.0057-2.2432-3.1949-3.9032-2.0691L17.5 29.5Z" fill="url(#a)"/>
  <path d="M56.5917 83.3352 16.5 56l-8.7776-5.7245A6 6 0 0 1 5 45.2498v-4.4662A5.9999 5.9999 0 0 1 7.7657 35.73L17.5 29.5l40.3549 27.2161A6 6 0 0 1 60.5 61.6905v19.5792c0 2.0085-2.2488 3.197-3.9083 2.0655Z" fill="url(#b)"/>
  <path d="m110.5 29.5-19 13-21.6329-13.2446A6.0002 6.0002 0 0 1 67 24.1382V4.7161c0-2.0057 2.2432-3.1949 3.9032-2.0691L110.5 29.5Z" fill="url(#c)"/>
  <path d="M71.4083 83.3352 111.5 56l8.778-5.7245A6.0005 6.0005 0 0 0 123 45.2498v-4.4662a5.9983 5.9983 0 0 0-2.766-5.0536L110.5 29.5 70.1451 56.7161A6 6 0 0 0 67.5 61.6905v19.5792c0 2.0085 2.2488 3.197 3.9083 2.0655Z" fill="url(#d)"/>
  <defs>
    <linearGradient id="a" x1="39" y1="0" x2="39" y2="43" gradientUnits="userSpaceOnUse">
      <stop stop-color="#3F75FF"/>
      <stop offset="1" stop-color="#0500FF" stop-opacity=".85"/>
    </linearGradient>
    <linearGradient id="b" x1="32.75" y1="86" x2="32.75" y2="29.5" gradientUnits="userSpaceOnUse">
      <stop stop-color="#1A16DA"/>
      <stop offset="1" stop-color="#0047FF"/>
    </linearGradient>
    <linearGradient id="c" x1="89" y1="0" x2="89" y2="43" gradientUnits="userSpaceOnUse">
      <stop stop-color="#3FDCFF"/>
      <stop offset="1" stop-color="#0500FF" stop-opacity=".85"/>
    </linearGradient>
    <linearGradient id="d" x1="95.25" y1="86" x2="95.25" y2="29.5" gradientUnits="userSpaceOnUse">
      <stop stop-color="#0F15FD"/>
      <stop offset="1" stop-color="#3F75FF"/>
    </linearGradient>
  </defs>
</svg>
